<?xml version="1.0" standalone="no"?>
<!DOCTYPE svg PUBLIC "-//W3C//DTD SVG 20010904//EN"
 "http://www.w3.org/TR/2001/REC-SVG-20010904/DTD/svg10.dtd">
<svg version="1.0" xmlns="http://www.w3.org/2000/svg"
 width="256.000000pt" height="256.000000pt" viewBox="0 0 256.000000 256.000000"
 preserveAspectRatio="xMidYMid meet">
<metadata>
Created by potrace 1.16, written by Peter Selinger 2001-2019
</metadata>
<g transform="translate(0.000000,256.000000) scale(0.100000,-0.100000)"
fill="#000000" stroke="none">
<path d="M506 2491 c-3 -5 -27 -14 -52 -20 -112 -28 -233 -143 -276 -263 -31
-82 -33 -97 -19 -142 5 -17 15 -51 21 -76 20 -81 78 -186 129 -233 60 -56 109
-71 222 -69 81 2 88 0 113 -24 14 -15 26 -30 26 -34 0 -5 -16 -22 -36 -40 -35
-30 -38 -31 -100 -25 -62 7 -65 6 -92 -22 -34 -37 -78 -143 -86 -208 -6 -44
-4 -41 13 22 31 113 60 158 95 147 30 -10 136 -84 136 -96 0 -5 -16 -29 -35
-52 -19 -24 -32 -45 -30 -48 8 -8 -66 -129 -75 -123 -5 3 -12 0 -16 -6 -4 -8
-3 -9 4 -5 16 10 15 1 -4 -35 -19 -37 -55 -37 -65 1 -5 19 -7 20 -8 6 -1 -11
11 -35 25 -54 26 -33 29 -34 75 -29 74 9 285 74 328 102 34 21 39 29 43 72 5
53 42 119 71 129 26 8 47 -14 215 -225 81 -101 188 -229 237 -283 50 -55 105
-117 124 -139 l34 -40 -32 -33 c-40 -41 -182 -104 -276 -122 -90 -18 -246 -18
-266 -2 -9 7 -28 42 -44 78 -35 81 -68 125 -103 138 -83 32 -189 45 -320 39
-74 -3 -135 -7 -137 -9 -1 -2 -6 -14 -10 -28 -7 -22 -6 -23 8 -12 13 12 20 11
39 -4 13 -9 30 -31 39 -48 8 -17 30 -40 48 -51 18 -11 55 -38 84 -61 29 -22
73 -55 100 -73 50 -34 55 -49 36 -111 -5 -19 -12 -43 -14 -52 -5 -24 -43 -108
-48 -108 -20 0 -78 35 -103 62 -44 47 -111 139 -135 184 -12 24 -17 29 -13 14
10 -40 103 -171 158 -222 28 -26 79 -62 113 -79 l63 -32 68 30 68 30 54 -28
c140 -73 332 -106 560 -96 151 7 267 35 455 112 72 29 148 58 170 65 85 26
185 113 185 161 0 8 7 24 15 36 8 12 22 51 30 88 9 37 22 83 30 103 27 74 64
209 76 277 18 114 -3 463 -37 585 -14 52 -32 106 -38 120 -10 20 -10 30 0 50
8 14 14 37 14 52 0 55 -74 187 -150 267 -30 31 -147 106 -202 130 -24 10 -64
21 -89 25 -41 6 -48 4 -61 -16 -34 -52 -68 -225 -68 -347 0 -89 15 -161 43
-203 27 -39 82 -78 111 -78 40 0 58 -146 34 -279 -14 -81 -45 -128 -92 -136
-47 -9 -85 13 -187 109 -47 45 -111 102 -142 129 -94 80 -327 335 -327 358 0
21 1 20 36 -6 36 -27 36 -27 74 -10 84 38 134 173 135 363 0 148 8 142 -194
142 -138 0 -160 -2 -199 -21 -59 -29 -80 -74 -63 -140 14 -54 9 -70 -28 -92
-39 -23 -40 -22 -56 16 -12 30 -12 41 7 101 19 62 20 75 8 138 -15 87 -69 196
-118 240 -29 26 -54 37 -103 47 -35 7 -74 17 -87 22 -29 12 -129 12 -136 0z
m112 -77 c36 -10 27 -34 -13 -34 -20 0 -72 -14 -116 -31 -95 -37 -145 -83
-191 -176 -35 -72 -34 -121 5 -185 37 -62 118 -139 171 -163 48 -22 49 -23 21
-24 -17 -1 -41 6 -53 15 -13 9 -26 14 -29 11 -10 -11 -122 54 -151 87 -24 28
-30 31 -39 18 -13 -21 -42 67 -50 154 -7 78 22 171 71 222 42 45 164 106 182
91 14 -12 70 -4 79 12 7 10 78 12 113 3z m21 -168 c45 -24 61 -58 61 -128 0
-78 -22 -127 -70 -151 -70 -36 -142 -2 -185 88 -34 68 -29 93 28 138 82 66
117 78 166 53z m741 -81 c0 -31 -95 -166 -130 -185 -21 -11 -70 5 -70 24 0 6
-16 26 -35 45 -19 19 -35 37 -35 41 0 4 11 15 25 24 17 11 47 16 103 16 66 0
82 3 97 20 17 18 45 28 45 15z m576 -114 c125 -205 124 -193 11 -311 -51 -52
-95 -96 -98 -98 -4 -2 -10 13 -13 32 -4 20 -14 43 -24 52 -14 15 -16 33 -14
113 2 53 4 108 4 123 1 15 5 25 10 22 5 -3 6 5 3 18 -3 13 -2 35 4 48 7 18 10
20 10 8 1 -10 6 -18 12 -18 6 0 9 17 8 43 -3 52 7 73 27 56 7 -6 34 -46 60
-88z m246 -437 c10 -32 18 -81 18 -107 0 -26 7 -83 16 -125 28 -128 21 -319
-21 -582 -22 -139 -90 -358 -120 -386 -14 -13 -60 -30 -116 -44 -52 -12 -130
-33 -174 -46 -119 -34 -218 -43 -440 -39 -260 6 -435 37 -435 80 0 12 6 12 42
0 102 -34 389 -62 373 -36 -3 6 1 11 10 11 8 0 19 10 24 22 10 26 42 60 89 98
18 14 32 30 32 36 0 6 10 24 22 40 24 30 26 36 32 107 3 42 2 46 -12 35 -13
-11 -15 -10 -9 4 4 12 -9 30 -48 62 -49 43 -190 200 -190 215 0 3 -9 19 -20
35 -14 21 -20 49 -21 97 -2 61 -5 73 -38 117 -30 41 -35 55 -30 81 5 21 2 37
-9 49 -8 9 -45 62 -81 117 l-66 100 82 -90 c105 -115 418 -425 428 -425 5 0
10 10 12 23 3 17 6 14 15 -18 6 -22 15 -58 19 -80 7 -38 8 -39 13 -12 l6 27
60 -53 c33 -29 83 -76 110 -104 37 -38 58 -52 80 -54 53 -2 76 1 71 10 -4 5 7
4 23 -2 31 -12 43 -8 121 35 19 11 43 22 53 25 13 4 17 17 18 52 1 25 1 49 0
53 -4 30 -2 130 3 135 3 4 13 -2 21 -13 14 -18 14 -17 10 11 -2 17 -7 68 -10
114 -3 46 -10 93 -16 104 -8 14 -8 22 1 27 9 5 10 18 5 36 -4 16 -9 39 -11 52
-3 12 -13 31 -24 42 -14 14 -20 34 -21 68 0 26 -2 64 -5 84 -4 30 0 41 22 62
40 37 64 23 86 -50z"/>
</g>
</svg>
