<?xml version="1.0" standalone="no"?>
<!DOCTYPE svg PUBLIC "-//W3C//DTD SVG 20010904//EN"
 "http://www.w3.org/TR/2001/REC-SVG-20010904/DTD/svg10.dtd">
<svg version="1.0" xmlns="http://www.w3.org/2000/svg"
 width="256.000000pt" height="256.000000pt" viewBox="0 0 256.000000 256.000000"
 preserveAspectRatio="xMidYMid meet">
<metadata>
Created by potrace 1.16, written by Peter Selinger 2001-2019
</metadata>
<g transform="translate(0.000000,256.000000) scale(0.100000,-0.100000)"
fill="#000000" stroke="none">
<path d="M1374 2440 c17 -87 17 -99 1 -130 -22 -43 -104 -120 -127 -120 -10 0
-18 -4 -18 -10 0 -5 25 -7 63 -4 61 6 62 6 74 -23 19 -44 104 -86 103 -50 -1
28 -29 59 -72 80 l-46 22 34 58 c44 74 46 132 8 174 l-25 28 5 -25z"/>
<path d="M620 2141 c0 -5 12 -18 26 -28 21 -16 26 -29 31 -78 4 -52 2 -65 -19
-95 -44 -64 -41 -74 10 -34 26 21 54 46 62 56 10 12 33 19 68 21 97 8 84 -17
-92 -167 -31 -26 -55 -51 -52 -54 3 -3 16 3 28 14 13 10 4 -2 -18 -27 -88 -98
-58 -80 59 34 67 66 121 123 120 127 -1 4 9 18 22 30 l24 23 -20 28 c-23 33
-65 39 -103 14 -24 -16 -24 -15 -47 34 -20 45 -99 126 -99 102z"/>
<path d="M1405 2060 c-22 -5 -81 -10 -132 -12 -50 -2 -89 -6 -87 -10 2 -3 -19
-11 -48 -16 -44 -8 -34 -9 57 -5 61 3 142 0 180 -5 98 -14 226 -63 277 -106
23 -20 44 -34 46 -31 7 7 52 -35 52 -48 0 -5 34 -46 76 -90 42 -45 90 -109
106 -142 27 -53 31 -72 34 -159 1 -54 8 -120 15 -147 10 -38 10 -62 -1 -121
-28 -161 -67 -285 -100 -323 -10 -11 -24 -33 -33 -50 -40 -80 -166 -167 -290
-201 -43 -12 -73 -26 -79 -37 -9 -17 -7 -18 24 -12 43 9 188 72 209 91 21 19
35 18 19 -1 -7 -9 -10 -18 -7 -22 4 -3 47 30 95 75 l89 81 19 -25 c10 -14 29
-26 42 -27 12 -1 22 -4 22 -8 0 -3 -27 -36 -60 -72 -64 -69 -68 -77 -46 -77 8
0 21 -9 28 -19 13 -19 15 -18 38 20 19 29 31 39 51 39 15 0 32 -6 38 -14 6 -8
24 -19 40 -25 31 -13 61 -67 61 -109 0 -21 2 -24 10 -12 36 55 -24 174 -104
204 -48 18 -52 29 -28 73 20 35 14 57 -24 93 -36 33 -37 34 -64 18 l-28 -16
19 33 c31 52 112 276 116 323 6 47 23 58 24 15 0 -16 5 -37 10 -48 6 -13 7 17
4 89 -3 60 -11 118 -16 129 -6 11 -20 56 -30 101 -21 90 -50 149 -118 246 -25
35 -44 67 -42 70 3 3 -19 23 -47 45 -28 22 -65 57 -82 79 -32 41 -42 38 -13
-4 9 -13 -11 -1 -46 28 -82 69 -142 98 -221 108 -56 7 -61 9 -31 13 19 4 36
12 39 19 4 13 -4 14 -63 2z"/>
<path d="M1915 1930 l55 -56 -17 -54 c-9 -30 -15 -63 -14 -72 3 -22 -2 -22
-37 -2 l-27 16 28 -26 c34 -32 60 -33 87 -4 30 32 34 61 17 112 -18 54 -13 61
60 76 30 7 60 21 73 35 l23 24 -57 -16 c-52 -15 -62 -15 -114 0 -40 11 -60 13
-69 5 -9 -7 -14 -6 -19 5 -3 9 -14 15 -25 14 -15 -1 -8 -13 36 -57z"/>
<path d="M1168 1850 c-60 -15 -225 -97 -281 -139 -62 -47 -82 -73 -130 -166
-44 -84 -67 -223 -48 -284 6 -20 15 -63 20 -96 11 -75 45 -167 75 -203 13 -15
31 -41 41 -59 25 -44 101 -99 182 -133 62 -26 78 -28 178 -27 99 2 114 5 153
28 l42 26 -92 1 c-51 1 -106 4 -123 7 -30 6 -30 6 -6 -8 51 -30 -53 -27 -109
3 -35 18 -90 63 -90 73 0 17 -82 117 -91 111 -6 -3 -10 0 -8 7 4 34 -1 41 -25
35 -22 -5 -27 -1 -46 51 -22 59 -41 181 -21 136 6 -13 12 -23 14 -23 9 0 -6
145 -15 151 -27 18 38 221 84 260 32 28 40 23 22 -13 -14 -27 -4 -21 57 37 41
39 83 76 94 83 19 12 19 13 -3 8 -23 -4 -23 -4 -6 15 22 25 72 51 104 54 14 1
39 5 55 9 l30 7 -27 -15 c-26 -16 -46 -52 -34 -63 3 -4 6 1 6 9 0 33 29 42
128 39 76 -2 100 -6 110 -19 10 -13 12 -13 12 -1 0 8 -5 20 -12 27 -17 17 -11
16 82 -23 46 -19 86 -35 88 -35 1 0 2 -8 0 -17 -2 -13 3 -17 20 -16 12 2 22
-3 22 -10 0 -11 46 -85 70 -114 5 -7 10 -17 10 -23 0 -6 5 -8 11 -4 6 3 9 15
6 25 -8 31 10 22 24 -13 7 -17 15 -26 17 -20 5 17 -64 130 -112 181 -52 55
-126 103 -191 124 -60 20 -236 30 -287 17z"/>
<path d="M1251 1671 c-14 -4 -26 -12 -29 -19 -4 -12 13 -16 53 -13 15 1 26 -9
38 -34 20 -42 21 -71 5 -108 -12 -24 -18 -27 -61 -25 -39 1 -54 7 -78 31 -31
31 -54 30 -27 0 31 -35 30 -57 -2 -88 -16 -16 -30 -36 -29 -44 0 -11 4 -9 11
6 33 67 165 104 242 68 69 -33 102 -148 63 -222 -38 -72 -176 -114 -247 -75
-20 11 -43 35 -53 57 -17 35 -20 37 -54 32 -59 -10 -67 -30 -11 -25 41 3 48 0
57 -19 9 -19 8 -23 -7 -23 -18 -1 -62 -33 -62 -45 0 -4 10 -1 23 7 30 20 62
27 77 18 31 -19 -49 -130 -92 -130 -5 0 -24 16 -40 35 -32 35 -48 37 -48 6 0
-24 58 -81 84 -81 25 0 62 30 105 87 23 30 36 40 51 36 22 -6 26 -18 10 -28
-5 -3 -10 -11 -10 -17 0 -6 9 -3 20 7 11 10 17 21 15 25 -3 4 10 6 28 4 17 -1
35 -3 40 -3 11 -1 8 -61 -5 -106 -6 -22 -11 -46 -9 -52 1 -7 -5 -13 -13 -13
-8 0 -27 -5 -43 -11 -26 -10 -27 -12 -11 -23 14 -10 30 -11 67 -3 45 8 49 12
60 47 15 51 14 94 -4 137 -17 41 -18 38 12 47 17 6 22 2 26 -16 l4 -23 2 22
c1 24 45 53 81 53 11 0 20 5 20 10 0 6 -6 10 -14 10 -16 0 -27 23 -18 36 4 5
51 10 105 12 86 3 98 2 104 -14 12 -32 23 34 16 98 -4 42 -10 58 -21 58 -10 0
-12 -7 -8 -25 5 -19 0 -32 -19 -51 -22 -22 -32 -25 -88 -22 l-62 3 -6 59 -7
60 46 53 c25 29 52 53 59 53 16 0 17 16 2 33 -5 7 -19 27 -30 46 -24 39 -36
35 -21 -8 7 -19 7 -31 1 -31 -5 0 -9 -8 -9 -18 0 -20 -56 -78 -80 -84 -8 -1
-29 7 -47 20 -17 12 -38 22 -46 22 -17 0 -28 31 -17 51 4 8 9 46 11 84 l4 70
-45 1 c-25 1 -56 -1 -69 -5z"/>
<path d="M1215 1404 c-47 -24 -64 -44 -71 -81 -12 -64 49 -153 105 -153 12 0
21 4 21 9 0 5 13 11 29 14 49 10 89 52 97 103 8 56 -7 87 -51 109 -42 19 -92
19 -130 -1z"/>
<path d="M2205 1298 c0 -105 7 -139 20 -99 8 25 36 21 99 -15 48 -28 102 -31
135 -7 23 16 23 17 5 30 -10 8 -44 26 -74 39 -67 31 -100 60 -100 91 0 17 6
23 21 23 26 0 59 18 59 32 0 15 -97 1 -124 -18 -28 -19 -34 -18 -38 9 -2 12
-3 -26 -3 -85z"/>
<path d="M657 827 c-7 -19 30 -60 114 -125 55 -43 68 -59 74 -90 7 -34 8 -35
18 -15 7 17 6 29 -8 50 -14 22 -10 20 21 -11 54 -53 146 -98 192 -94 l37 3
-62 23 c-34 12 -80 37 -102 55 -21 18 -63 46 -92 62 -29 17 -70 46 -90 65 -20
19 -50 48 -67 63 -23 22 -31 25 -35 14z"/>
<path d="M606 652 c-4 -10 1 -38 9 -62 20 -56 11 -117 -21 -161 -39 -53 -29
-66 19 -25 28 24 73 138 62 156 -10 16 16 22 32 8 9 -7 17 -12 17 -10 1 2 14
-2 30 -8 16 -6 37 -8 45 -5 13 5 11 9 -9 20 -14 8 -35 14 -48 15 -13 0 -44 19
-71 45 -26 25 -51 45 -54 45 -3 0 -8 -8 -11 -18z"/>
<path d="M1370 538 c-41 -4 -111 -11 -155 -14 -54 -5 -72 -9 -55 -14 l25 -6
-25 -9 c-21 -7 -17 -9 29 -12 29 -2 67 1 84 6 31 11 135 15 159 6 11 -4 13
-17 9 -48 l-6 -42 -105 -13 c-126 -16 -140 -20 -121 -31 10 -7 10 -13 2 -29
-16 -30 -15 -30 32 -25 40 5 45 2 80 -36 35 -39 37 -44 37 -111 0 -39 4 -70 9
-70 5 0 19 12 30 26 30 38 28 104 -5 153 -35 54 -30 92 14 105 38 11 65 53 60
94 -2 23 -11 30 -53 44 l-50 16 50 4 c28 2 46 5 40 8 -5 3 -44 2 -85 -2z"/>
</g>
</svg>
