<?xml version="1.0" standalone="no"?>
<!DOCTYPE svg PUBLIC "-//W3C//DTD SVG 20010904//EN"
 "http://www.w3.org/TR/2001/REC-SVG-20010904/DTD/svg10.dtd">
<svg version="1.0" xmlns="http://www.w3.org/2000/svg"
 width="256.000000pt" height="256.000000pt" viewBox="0 0 256.000000 256.000000"
 preserveAspectRatio="xMidYMid meet">
<metadata>
Created by potrace 1.16, written by Peter Selinger 2001-2019
</metadata>
<g transform="translate(0.000000,256.000000) scale(0.100000,-0.100000)"
fill="#000000" stroke="none">
<path d="M1725 2232 c-216 -62 -335 -116 -483 -219 -214 -149 -345 -316 -391
-498 -7 -27 -16 -66 -21 -85 -17 -65 -29 -210 -20 -234 12 -33 28 -41 85 -41
l50 0 9 -48 c8 -40 6 -55 -8 -81 -25 -47 -49 -57 -150 -63 -129 -8 -247 15
-354 67 -150 74 -174 82 -257 87 -69 4 -85 1 -113 -17 -21 -13 -32 -27 -30
-38 3 -14 19 -18 93 -23 103 -6 122 -14 224 -86 41 -29 107 -65 147 -80 41
-16 74 -31 74 -34 0 -9 -125 -47 -216 -65 -142 -29 -158 -33 -200 -48 -93 -32
-164 -89 -164 -128 0 -24 20 -23 93 8 120 52 163 65 256 79 52 8 97 13 99 11
2 -2 -23 -22 -55 -44 -75 -51 -183 -151 -206 -191 -26 -44 -12 -39 18 7 61 93
298 249 482 318 35 13 63 22 63 19 0 -2 -30 -21 -67 -41 -69 -38 -205 -128
-326 -217 -74 -54 -178 -177 -226 -267 -38 -71 -41 -99 -4 -45 43 65 118 149
180 201 32 27 52 41 44 31 -7 -9 -9 -17 -4 -17 12 0 41 31 43 45 1 6 4 12 7
15 4 3 3 -1 -1 -7 -12 -21 1 -15 56 24 45 31 37 21 -49 -64 -70 -70 -108 -116
-123 -150 -11 -26 -27 -61 -35 -76 -23 -43 -19 -67 9 -67 18 0 53 32 140 129
64 72 138 145 164 163 99 70 107 71 44 7 -131 -134 -232 -314 -232 -416 0 -50
26 -41 56 20 15 28 30 53 35 55 5 2 9 10 9 17 0 18 146 166 197 200 24 15 41
31 38 35 -3 4 3 14 13 21 15 13 16 12 3 -3 -21 -27 -6 -22 60 22 33 22 62 40
64 40 1 0 -13 -36 -32 -80 -29 -67 -35 -96 -40 -173 -4 -81 -2 -96 17 -125 27
-43 45 -31 53 38 12 98 94 248 179 327 l24 22 -4 -70 c-5 -84 12 -182 40 -227
11 -18 37 -45 58 -58 41 -27 78 -26 146 2 65 27 140 139 132 196 -5 40 -36 33
-81 -17 -52 -58 -97 -79 -134 -62 l-26 11 7 96 c6 105 24 176 57 229 l20 34
47 -45 c26 -25 73 -64 104 -86 102 -74 188 -213 188 -303 0 -17 -10 -47 -21
-66 -15 -23 -18 -38 -11 -45 15 -15 49 7 68 44 31 60 34 88 18 167 -17 84 -60
154 -152 246 -63 64 -78 95 -86 175 -7 62 -6 67 18 89 15 14 26 28 26 32 0 10
-65 -9 -120 -35 -52 -24 -129 -25 -185 -2 -40 17 -48 31 -9 16 14 -6 52 -10
85 -10 97 0 176 46 334 197 73 69 156 156 186 195 59 78 115 142 102 117 -39
-74 -130 -185 -240 -295 -123 -122 -149 -154 -123 -154 5 0 29 -20 53 -45 25
-25 51 -45 59 -45 9 0 48 15 89 34 94 43 124 52 114 36 -15 -24 39 13 92 63
58 54 150 206 196 319 52 132 75 295 81 583 4 187 10 275 21 315 19 69 19 70
-6 40 -35 -44 -62 -102 -100 -220 -46 -139 -49 -133 -10 16 38 144 49 168 105
237 l47 58 -38 -16 c-21 -9 -54 -32 -73 -50 -20 -19 -41 -35 -47 -35 -7 0 -35
-27 -64 -59 -29 -33 -63 -62 -76 -66 -12 -3 -23 -10 -23 -15 0 -5 -6 -7 -13
-4 -17 6 -32 -12 -91 -108 -26 -43 -52 -78 -57 -78 -41 0 -178 -247 -234 -420
-46 -141 -54 -161 -117 -262 -69 -111 -86 -128 -146 -151 -80 -32 -132 -17
-156 45 -30 74 -12 162 43 212 12 11 21 26 21 34 0 8 24 38 53 65 28 28 40 43
25 34 -55 -34 -18 11 139 168 105 106 172 182 198 225 21 36 59 96 83 134 29
45 41 71 33 74 -8 3 -2 16 15 40 19 24 24 37 15 40 -9 3 -8 9 5 23 16 18 16
19 -7 28 -13 5 -28 6 -34 3 -5 -3 -5 1 1 7 7 7 54 35 105 62 52 26 90 49 85
49 -5 0 -3 6 3 14 7 8 -35 -3 -96 -25 -153 -56 -196 -75 -296 -131 -49 -28
-90 -48 -93 -45 -14 14 317 183 434 221 50 17 65 27 40 25 -7 0 -71 -17 -143
-37z m-690 -533 c0 -50 -1 -52 -37 -66 -48 -19 -67 -61 -49 -110 13 -36 3 -63
-24 -63 -30 0 -44 -35 -42 -105 2 -61 6 -71 25 -80 28 -12 29 -35 1 -35 -51 0
-59 14 -59 111 0 82 2 92 25 114 13 14 28 25 33 25 5 0 7 23 4 50 -4 48 -3 52
32 85 21 19 44 35 52 35 9 0 14 11 14 33 0 25 14 57 25 57 0 0 0 -23 0 -51z
m894 -565 c-13 -15 -43 -35 -65 -45 -35 -16 -41 -23 -37 -43 11 -55 -57 -136
-114 -136 -13 0 -33 -14 -49 -35 -18 -25 -34 -35 -48 -33 -31 4 -31 33 0 73
26 34 28 35 74 29 48 -6 48 -6 75 34 23 35 26 47 20 85 -9 58 -2 69 32 56 32
-12 83 3 108 31 10 11 21 18 23 15 3 -3 -5 -17 -19 -31z"/>
</g>
</svg>
